# xmcd CD database file
#
# Track frame offsets:
#	150
#	16307
#	28372
#	41485
#	53728
#	68211
#	82786
#	96156
#	110648
#	123904
#	138290
#	152939
#	166940
#	182582
#	196355
#	211148
#	225784
#	238744
#	252640
#	266658
#	280672
#	295165
#	308718
#	322309
#	332093
#
# Disc length: 4675 seconds
#
# Revision: 1
# Processed by: cddbd v1.5.2PL0 Copyright (c) Steve Scherf et al.
# Submitted via: CDex 1.70beta2
#
DISCID=64124119
DTITLE=Nat Gonella - The Very Best of Nat Gonella [CD2]
DYEAR=2008
DGENRE=Jazz
TTITLE0=Georgia On My Mind 
TTITLE1=I'm Forever Blowing Bubbles 
TTITLE2=Vox Poppin' 
TTITLE3=It's A Pair Of Wings For Me 
TTITLE4=At The Woodchoppers Ball 
TTITLE5=That's My Home 
TTITLE6=Mean To Me 
TTITLE7=Hey Little Hen 
TTITLE8=We Three (My Echo My Shadow And Me) 
TTITLE9=He Stole My Heart Away 
TTITLE10=Stardust 
TTITLE11=Aurora 
TTITLE12=Man Who Comes Around 
TTITLE13=Time On My Hands 
TTITLE14=Oh Monah 
TTITLE15=No Mama No 
TTITLE16=Seven Days Leave 
TTITLE17=Juanita 
TTITLE18=Booglie Wooglie Piggy 
TTITLE19=Oh Susannah 
TTITLE20=If You Were The Only Girl In The World 
TTITLE21=Stompin' At The Savoy 
TTITLE22=How Am I To Know 
TTITLE23=Yip I Addy I Ay 
TTITLE24=Confessin' 
EXTD=YEAR: 2008
EXTT0=
EXTT1=
EXTT2=
EXTT3=
EXTT4=
EXTT5=
EXTT6=
EXTT7=
EXTT8=
EXTT9=
EXTT10=
EXTT11=
EXTT12=
EXTT13=
EXTT14=
EXTT15=
EXTT16=
EXTT17=
EXTT18=
EXTT19=
EXTT20=
EXTT21=
EXTT22=
EXTT23=
EXTT24=
PLAYORDER=
